<svg width="203" height="34" viewBox="0 0 203 34" fill="none" xmlns="http://www.w3.org/2000/svg">
<path d="M202.441 27.5822C202.671 28.3778 202.213 29.2099 201.418 29.4406L188.452 33.2012C187.657 33.432 186.824 32.9741 186.594 32.1784C186.363 31.3828 186.821 30.5507 187.617 30.32L199.142 26.9772L195.799 15.4522C195.568 14.6566 196.026 13.8245 196.822 13.5937C197.617 13.363 198.449 13.8209 198.68 14.6165L202.441 27.5822ZM0.306355 26.67C1.22502 26.1909 2.14397 25.7186 3.06318 25.253L4.41865 27.9293C3.51012 28.3895 2.60177 28.8564 1.69365 29.33L0.306355 26.67ZM8.60413 22.5301C10.4718 21.6402 12.3404 20.7781 14.2095 19.9437L15.4324 22.6832C13.586 23.5074 11.74 24.3591 9.89449 25.2384L8.60413 22.5301ZM19.8778 17.4985C21.7903 16.7022 23.7032 15.9346 25.6162 15.1956L26.6972 17.9941C24.8085 18.7237 22.9197 19.4816 21.031 20.268L19.8778 17.4985ZM31.4121 13.044C33.3626 12.3493 35.313 11.6841 37.263 11.0483L38.193 13.9006C36.2687 14.5279 34.3439 15.1844 32.4187 15.8701L31.4121 13.044ZM43.1659 9.21287C45.1505 8.62568 47.1345 8.06877 49.1176 7.54196L49.8878 10.4414C47.9319 10.961 45.9749 11.5103 44.017 12.0896L43.1659 9.21287ZM55.1143 6.03977C57.1282 5.56574 59.1409 5.12263 61.1522 4.71025L61.7547 7.64911C59.772 8.05565 57.7875 8.49254 55.8017 8.95996L55.1143 6.03977ZM67.2267 3.55712C69.2642 3.20132 71.2998 2.87695 73.3333 2.58383L73.7613 5.55314C71.7573 5.84201 69.7511 6.16169 67.7428 6.5124L67.2267 3.55712ZM79.4668 1.79348C81.5211 1.56015 83.573 1.35866 85.622 1.18877L85.8698 4.17852C83.8511 4.34588 81.8295 4.54441 79.8053 4.77431L79.4668 1.79348ZM91.7933 0.772041C93.8571 0.664432 95.9178 0.58887 97.9749 0.545138L98.0387 3.54446C96.0124 3.58754 93.9826 3.66197 91.9495 3.76797L91.7933 0.772041ZM104.161 0.509456C106.227 0.529583 108.289 0.581812 110.346 0.665919L110.224 3.66342C108.197 3.58058 106.167 3.52914 104.132 3.50931L104.161 0.509456ZM116.524 1.01491C118.583 1.16347 120.637 1.34401 122.687 1.55628L122.378 4.54032C120.359 4.33125 118.336 4.15345 116.308 4.00713L116.524 1.01491ZM128.83 2.28941C130.874 2.56574 132.914 2.87373 134.947 3.21316L134.453 6.17222C132.45 5.8379 130.442 5.53454 128.428 5.26238L128.83 2.28941ZM141.032 4.32592C143.054 4.72804 145.071 5.16136 147.08 5.62564L146.405 8.54865C144.425 8.09127 142.439 7.66441 140.447 7.26831L141.032 4.32592ZM153.085 7.10982C155.077 7.63457 157.063 8.1899 159.042 8.77559L158.19 11.6522C156.241 11.0751 154.284 10.5279 152.321 10.0109L153.085 7.10982ZM164.945 10.6197C166.901 11.2629 168.849 11.9359 170.79 12.6386L169.769 15.4594C167.856 14.7668 165.935 14.1034 164.008 13.4695L164.945 10.6197ZM176.573 14.8284C178.487 15.585 180.392 16.3706 182.289 17.185L181.106 19.9418C179.235 19.1387 177.356 18.3641 175.47 17.6181L176.573 14.8284ZM187.935 19.7042C189.801 20.5686 191.658 21.4611 193.507 22.3814L192.17 25.0671C190.346 24.1591 188.514 23.2788 186.674 22.4262L187.935 19.7042ZM199.002 25.2122C199.911 25.6966 200.818 26.1879 201.723 26.6859L200.277 29.3141C199.384 28.8227 198.489 28.338 197.591 27.86L199.002 25.2122Z" fill="#DD4F93"/>
</svg>
