<svg xmlns:xlink="http://www.w3.org/1999/xlink" xmlns="http://www.w3.org/2000/svg" width="76" height="76" viewBox="0 0 76 76" fill="none"><g clip-path="url(#clip0_5397_104)"><rect width="76" height="76" fill="#8C21A1"></rect><g filter="url(#filter0_f_5397_104)"><rect x="-113.929" y="50.4928" width="200" height="99.4898" transform="rotate(-45 -113.929 50.4928)" fill="#DD4F93"></rect></g><path d="M38 13C38 13 38 38.4558 63.4558 38.4559C38 38.4558 38 63.9117 38 63.9117C38 63.9117 38 38.4558 12.5442 38.4558C38 38.4558 38 13 38 13Z" stroke="white" stroke-width="4" stroke-linejoin="round"></path><path d="M18 9.42328C18 9.42328 18 17.9085 26.4853 17.9086C18 17.9085 18 26.3938 18 26.3938C18 26.3938 18 17.9086 9.51472 17.9086C18 17.9086 18 9.42328 18 9.42328Z" stroke="white" stroke-width="3" stroke-linejoin="round"></path><path d="M18 52.4233C18 52.4233 18 58.0801 23.6569 58.0801C18 58.0801 18 63.737 18 63.737C18 63.737 18 58.0801 12.3431 58.0801C18 58.0801 18 52.4233 18 52.4233Z" stroke="white" stroke-width="2" stroke-linejoin="round"></path></g><defs><filter id="filter0_f_5397_104" x="-188.929" y="-165.929" width="361.771" height="361.771" filterUnits="userSpaceOnUse" color-interpolation-filters="sRGB"><feGaussianBlur stdDeviation="37.5"></feGaussianBlur></filter><clipPath id="clip0_5397_104"><rect width="76" height="76" rx="5" fill="white"></rect></clipPath></defs></svg>