<svg xmlns:xlink="http://www.w3.org/1999/xlink" xmlns="http://www.w3.org/2000/svg" width="76" height="76" viewBox="0 0 76 76" fill="none"><g clip-path="url(#clip0_5397_72)"><rect width="76" height="76" fill="#8C21A1"></rect><g filter="url(#filter0_f_5397_72)"><rect x="-113.929" y="50.4928" width="200" height="99.4898" transform="rotate(-45 -113.929 50.4928)" fill="#DD4F93"></rect></g><path d="M10 24C10 22.3431 11.3431 21 13 21H63C64.6569 21 66 22.3431 66 24V40C66 41.6569 64.6569 43 63 43H13C11.3431 43 10 41.6569 10 40V24Z" stroke="white" stroke-width="4" stroke-linejoin="round"></path><path d="M10 56C10 54.3431 11.3431 53 13 53H30C31.6569 53 33 54.3431 33 56V63C33 64.6569 31.6569 66 30 66H13C11.3431 66 10 64.6569 10 63V56Z" stroke="white" stroke-width="4" stroke-linejoin="round"></path><rect x="8" y="8" width="5" height="5" rx="2.5" fill="white"></rect><rect x="16" y="8" width="5" height="5" rx="2.5" fill="white"></rect><rect x="24" y="8" width="5" height="5" rx="2.5" fill="white"></rect><path d="M43 54.5H62.5" stroke="white" stroke-width="4" stroke-linecap="round" stroke-linejoin="round"></path><path d="M43 63.5H52.5" stroke="white" stroke-width="4" stroke-linecap="round" stroke-linejoin="round"></path></g><defs><filter id="filter0_f_5397_72" x="-188.929" y="-165.929" width="361.771" height="361.771" filterUnits="userSpaceOnUse" color-interpolation-filters="sRGB"><feGaussianBlur stdDeviation="37.5"></feGaussianBlur></filter><clipPath id="clip0_5397_72"><rect width="76" height="76" rx="5" fill="white"></rect></clipPath></defs></svg>