<svg xmlns="http://www.w3.org/2000/svg" width="353" height="104" viewBox="0 0 353 104" fill="none"><path d="M139.938 47.2337C137.781 47.2337 135.778 46.8331 133.929 46.0319C132.08 45.1999 130.509 44.0752 129.214 42.6577C127.92 41.2402 126.965 39.607 126.349 37.7582L130.971 35.8168C131.803 37.943 133.02 39.5762 134.622 40.7164C136.225 41.8565 138.074 42.4266 140.169 42.4266C141.402 42.4266 142.48 42.2417 143.405 41.8719C144.329 41.4713 145.038 40.9167 145.531 40.2079C146.055 39.4992 146.317 38.6826 146.317 37.7582C146.317 36.4948 145.962 35.4933 145.254 34.7537C144.545 34.0142 143.497 33.4287 142.11 32.9973L135.639 30.9635C133.051 30.1623 131.079 28.9451 129.723 27.3119C128.367 25.6479 127.689 23.7066 127.689 21.4879C127.689 19.5466 128.167 17.8518 129.122 16.4035C130.077 14.9244 131.387 13.7688 133.051 12.9368C134.746 12.1048 136.672 11.6888 138.829 11.6888C140.893 11.6888 142.773 12.0586 144.468 12.7982C146.163 13.5069 147.611 14.493 148.813 15.7564C150.045 17.0198 150.939 18.4835 151.494 20.1475L146.964 22.135C146.286 20.317 145.223 18.9149 143.774 17.9288C142.357 16.9427 140.708 16.4497 138.829 16.4497C137.689 16.4497 136.687 16.65 135.824 17.0506C134.961 17.4204 134.284 17.975 133.79 18.7146C133.328 19.4233 133.097 20.2553 133.097 21.2106C133.097 22.3199 133.452 23.306 134.16 24.1688C134.869 25.0316 135.948 25.6787 137.396 26.1102L143.405 28.0053C146.147 28.8373 148.212 30.039 149.598 31.6106C150.985 33.1513 151.678 35.0773 151.678 37.3884C151.678 39.2989 151.17 40.9937 150.153 42.4728C149.167 43.9519 147.796 45.1229 146.039 45.9857C144.283 46.8177 142.249 47.2337 139.938 47.2337ZM167.646 46.9564C165.027 46.9564 162.993 46.2168 161.545 44.7377C160.097 43.2586 159.373 41.1786 159.373 38.4977V26.3875H154.982V21.6728H155.675C156.846 21.6728 157.755 21.3339 158.402 20.6559C159.049 19.978 159.373 19.0536 159.373 17.8826V15.9413H164.596V21.6728H170.281V26.3875H164.596V38.2666C164.596 39.1294 164.734 39.869 165.012 40.4853C165.289 41.0708 165.736 41.533 166.352 41.8719C166.969 42.1801 167.77 42.3342 168.756 42.3342C169.002 42.3342 169.28 42.3188 169.588 42.2879C169.896 42.2571 170.189 42.2263 170.466 42.1955V46.679C170.035 46.7407 169.557 46.8023 169.033 46.8639C168.509 46.9256 168.047 46.9564 167.646 46.9564ZM182.363 47.2337C180.668 47.2337 179.174 46.941 177.88 46.3555C176.616 45.7392 175.63 44.9072 174.921 43.8595C174.213 42.781 173.858 41.5176 173.858 40.0693C173.858 38.7134 174.151 37.4962 174.737 36.4177C175.353 35.3392 176.293 34.4302 177.556 33.6906C178.819 32.951 180.406 32.4272 182.317 32.119L191.007 30.6862V34.7999L183.334 36.1404C181.947 36.3869 180.93 36.8337 180.283 37.4808C179.636 38.0971 179.313 38.8983 179.313 39.8844C179.313 40.8396 179.667 41.6254 180.376 42.2417C181.115 42.8272 182.055 43.1199 183.195 43.1199C184.613 43.1199 185.845 42.8118 186.893 42.1955C187.971 41.5792 188.803 40.7626 189.389 39.7457C189.974 38.698 190.267 37.5425 190.267 36.279V29.8542C190.267 28.6216 189.805 27.6201 188.881 26.8497C187.987 26.0485 186.785 25.6479 185.275 25.6479C183.889 25.6479 182.671 26.0177 181.624 26.7573C180.607 27.466 179.852 28.3905 179.359 29.5306L175.014 27.3582C175.476 26.1256 176.231 25.047 177.279 24.1226C178.326 23.1673 179.544 22.4278 180.93 21.9039C182.348 21.3801 183.842 21.1182 185.414 21.1182C187.386 21.1182 189.127 21.4879 190.637 22.2275C192.178 22.967 193.364 23.9993 194.196 25.3244C195.059 26.6186 195.49 28.1285 195.49 29.8542V46.679H190.498V42.1493L191.561 42.2879C190.976 43.3048 190.221 44.183 189.297 44.9226C188.403 45.6622 187.371 46.2322 186.2 46.6328C185.059 47.0334 183.781 47.2337 182.363 47.2337ZM201.135 46.679V21.6728H206.127V26.711L205.665 25.9715C206.22 24.3383 207.113 23.1673 208.346 22.4586C209.578 21.719 211.058 21.3493 212.783 21.3493H214.309V26.1102H212.136C210.41 26.1102 209.008 26.6494 207.93 27.7279C206.882 28.7756 206.358 30.2856 206.358 32.2577V46.679H201.135ZM228.687 46.9564C226.068 46.9564 224.034 46.2168 222.586 44.7377C221.137 43.2586 220.413 41.1786 220.413 38.4977V26.3875H216.022V21.6728H216.715C217.886 21.6728 218.795 21.3339 219.442 20.6559C220.09 19.978 220.413 19.0536 220.413 17.8826V15.9413H225.636V21.6728H231.322V26.3875H225.636V38.2666C225.636 39.1294 225.775 39.869 226.052 40.4853C226.33 41.0708 226.776 41.533 227.393 41.8719C228.009 42.1801 228.81 42.3342 229.796 42.3342C230.043 42.3342 230.32 42.3188 230.628 42.2879C230.936 42.2571 231.229 42.2263 231.506 42.1955V46.679C231.075 46.7407 230.597 46.8023 230.074 46.8639C229.55 46.9256 229.087 46.9564 228.687 46.9564ZM247.43 47.2337C244.934 47.2337 242.716 46.6636 240.774 45.5235C238.864 44.3525 237.369 42.781 236.291 40.8088C235.212 38.8059 234.673 36.5718 234.673 34.1066C234.673 31.5798 235.212 29.3457 236.291 27.4044C237.4 25.463 238.879 23.9377 240.728 22.8284C242.577 21.6882 244.672 21.1182 247.014 21.1182C248.894 21.1182 250.573 21.4417 252.053 22.0888C253.532 22.7359 254.78 23.6296 255.797 24.7697C256.813 25.879 257.584 27.1579 258.108 28.6062C258.662 30.0545 258.94 31.5952 258.94 33.2284C258.94 33.629 258.924 34.045 258.893 34.4764C258.863 34.9078 258.801 35.3084 258.709 35.6782H238.787V31.5182H255.75L253.254 33.4133C253.563 31.9033 253.455 30.5629 252.931 29.3919C252.438 28.1902 251.667 27.2503 250.62 26.5724C249.603 25.8636 248.401 25.5093 247.014 25.5093C245.628 25.5093 244.395 25.8636 243.317 26.5724C242.238 27.2503 241.406 28.2364 240.821 29.5306C240.235 30.794 240.004 32.3347 240.127 34.1528C239.973 35.8476 240.204 37.3268 240.821 38.5902C241.468 39.8536 242.361 40.8396 243.501 41.5484C244.672 42.2571 245.997 42.6115 247.477 42.6115C248.987 42.6115 250.265 42.2725 251.313 41.5946C252.392 40.9167 253.239 40.0385 253.855 38.9599L258.108 41.0399C257.615 42.2109 256.844 43.274 255.797 44.2293C254.78 45.1537 253.547 45.8933 252.099 46.4479C250.681 46.9718 249.125 47.2337 247.43 47.2337ZM263.575 46.679V21.6728H268.567V26.711L268.105 25.9715C268.659 24.3383 269.553 23.1673 270.786 22.4586C272.018 21.719 273.497 21.3493 275.223 21.3493H276.748V26.1102H274.576C272.85 26.1102 271.448 26.6494 270.37 27.7279C269.322 28.7756 268.798 30.2856 268.798 32.2577V46.679H263.575ZM133.975 93.679V64.0968H124.823V59.2435H148.397V64.0968H139.383V93.679H133.975ZM159.995 94.2337C157.499 94.2337 155.28 93.6636 153.339 92.5235C151.428 91.3525 149.933 89.781 148.855 87.8088C147.776 85.8059 147.237 83.5718 147.237 81.1066C147.237 78.5798 147.776 76.3457 148.855 74.4044C149.964 72.463 151.443 70.9377 153.292 69.8284C155.141 68.6882 157.237 68.1182 159.579 68.1182C161.458 68.1182 163.138 68.4417 164.617 69.0888C166.096 69.7359 167.344 70.6296 168.361 71.7697C169.378 72.879 170.148 74.1579 170.672 75.6062C171.227 77.0545 171.504 78.5952 171.504 80.2284C171.504 80.629 171.488 81.045 171.458 81.4764C171.427 81.9078 171.365 82.3084 171.273 82.6782H151.351V78.5182H168.315L165.819 80.4133C166.127 78.9033 166.019 77.5629 165.495 76.3919C165.002 75.1902 164.232 74.2503 163.184 73.5724C162.167 72.8636 160.965 72.5093 159.579 72.5093C158.192 72.5093 156.959 72.8636 155.881 73.5724C154.802 74.2503 153.97 75.2364 153.385 76.5306C152.799 77.794 152.568 79.3347 152.691 81.1528C152.537 82.8476 152.768 84.3268 153.385 85.5902C154.032 86.8536 154.925 87.8396 156.066 88.5484C157.237 89.2571 158.562 89.6115 160.041 89.6115C161.551 89.6115 162.829 89.2725 163.877 88.5946C164.956 87.9167 165.803 87.0385 166.419 85.9599L170.672 88.0399C170.179 89.2109 169.408 90.274 168.361 91.2293C167.344 92.1537 166.111 92.8933 164.663 93.4479C163.245 93.9718 161.689 94.2337 159.995 94.2337ZM176.139 93.679V68.6728H181.131V74.0808L180.484 73.2488C181.008 71.554 181.963 70.2752 183.35 69.4124C184.736 68.5496 186.323 68.1182 188.111 68.1182C190.114 68.1182 191.885 68.6574 193.426 69.7359C194.998 70.7836 196.045 72.1857 196.569 73.9422L195.09 74.0808C195.83 72.0779 196.954 70.5833 198.464 69.5973C200.005 68.6112 201.762 68.1182 203.734 68.1182C205.459 68.1182 207.016 68.5187 208.402 69.3199C209.82 70.1211 210.944 71.2305 211.776 72.6479C212.608 74.0654 213.024 75.6832 213.024 77.5013V93.679H207.801V78.9342C207.801 77.6708 207.57 76.6076 207.108 75.7448C206.677 74.8512 206.06 74.1733 205.259 73.711C204.489 73.218 203.58 72.9715 202.532 72.9715C201.484 72.9715 200.56 73.218 199.759 73.711C198.957 74.1733 198.326 74.8512 197.864 75.7448C197.401 76.6385 197.17 77.7016 197.17 78.9342V93.679H191.993V78.9342C191.993 77.6708 191.762 76.6076 191.3 75.7448C190.869 74.8512 190.252 74.1733 189.451 73.711C188.681 73.218 187.756 72.9715 186.678 72.9715C185.63 72.9715 184.706 73.218 183.904 73.711C183.103 74.1733 182.472 74.8512 182.009 75.7448C181.578 76.6385 181.362 77.7016 181.362 78.9342V93.679H176.139ZM218.153 102.923V68.6728H223.145V73.8497L222.544 72.6479C223.468 71.2305 224.701 70.1211 226.241 69.3199C227.782 68.5187 229.539 68.1182 231.511 68.1182C233.884 68.1182 236.01 68.6882 237.889 69.8284C239.8 70.9685 241.294 72.5247 242.373 74.4968C243.482 76.469 244.037 78.6876 244.037 81.1528C244.037 83.618 243.482 85.8367 242.373 87.8088C241.294 89.781 239.815 91.3525 237.936 92.5235C236.056 93.6636 233.914 94.2337 231.511 94.2337C229.569 94.2337 227.798 93.8331 226.195 93.0319C224.624 92.2308 223.406 91.0752 222.544 89.5653L223.376 88.5946V102.923H218.153ZM231.002 89.3804C232.481 89.3804 233.791 89.026 234.931 88.3173C236.071 87.6085 236.965 86.6379 237.612 85.4053C238.29 84.1419 238.629 82.7244 238.629 81.1528C238.629 79.5813 238.29 78.1792 237.612 76.9466C236.965 75.714 236.071 74.7433 234.931 74.0346C233.791 73.3259 232.481 72.9715 231.002 72.9715C229.554 72.9715 228.244 73.3259 227.073 74.0346C225.933 74.7433 225.024 75.714 224.346 76.9466C223.699 78.1792 223.376 79.5813 223.376 81.1528C223.376 82.7244 223.699 84.1419 224.346 85.4053C225.024 86.6379 225.933 87.6085 227.073 88.3173C228.244 89.026 229.554 89.3804 231.002 89.3804ZM248.656 93.679V58.6888H253.879V93.679H248.656ZM267.011 94.2337C265.316 94.2337 263.822 93.941 262.528 93.3555C261.264 92.7392 260.278 91.9072 259.569 90.8595C258.861 89.781 258.506 88.5176 258.506 87.0693C258.506 85.7134 258.799 84.4962 259.385 83.4177C260.001 82.3392 260.941 81.4302 262.204 80.6906C263.468 79.951 265.055 79.4272 266.965 79.119L275.655 77.6862V81.7999L267.982 83.1404C266.595 83.3869 265.578 83.8337 264.931 84.4808C264.284 85.0971 263.961 85.8983 263.961 86.8844C263.961 87.8396 264.315 88.6254 265.024 89.2417C265.763 89.8272 266.703 90.1199 267.843 90.1199C269.261 90.1199 270.493 89.8118 271.541 89.1955C272.62 88.5792 273.452 87.7626 274.037 86.7457C274.623 85.698 274.915 84.5425 274.915 83.279V76.8542C274.915 75.6216 274.453 74.6201 273.529 73.8497C272.635 73.0485 271.433 72.6479 269.923 72.6479C268.537 72.6479 267.319 73.0177 266.272 73.7573C265.255 74.466 264.5 75.3905 264.007 76.5306L259.662 74.3582C260.124 73.1256 260.879 72.047 261.927 71.1226C262.975 70.1673 264.192 69.4278 265.578 68.9039C266.996 68.3801 268.49 68.1182 270.062 68.1182C272.034 68.1182 273.775 68.4879 275.285 69.2275C276.826 69.967 278.012 70.9993 278.844 72.3244C279.707 73.6186 280.138 75.1285 280.138 76.8542V93.679H275.146V89.1493L276.209 89.2879C275.624 90.3048 274.869 91.183 273.945 91.9226C273.051 92.6622 272.019 93.2322 270.848 93.6328C269.708 94.0334 268.429 94.2337 267.011 94.2337ZM296.148 93.9564C293.529 93.9564 291.495 93.2168 290.047 91.7377C288.598 90.2586 287.874 88.1786 287.874 85.4977V73.3875H283.483V68.6728H284.176C285.347 68.6728 286.256 68.3339 286.903 67.6559C287.551 66.978 287.874 66.0536 287.874 64.8826V62.9413H293.097V68.6728H298.783V73.3875H293.097V85.2666C293.097 86.1294 293.236 86.869 293.513 87.4853C293.791 88.0708 294.237 88.533 294.854 88.8719C295.47 89.1801 296.271 89.3342 297.257 89.3342C297.504 89.3342 297.781 89.3188 298.089 89.2879C298.397 89.2571 298.69 89.2263 298.967 89.1955V93.679C298.536 93.7407 298.058 93.8023 297.535 93.8639C297.011 93.9256 296.548 93.9564 296.148 93.9564ZM314.891 94.2337C312.395 94.2337 310.177 93.6636 308.235 92.5235C306.325 91.3525 304.83 89.781 303.752 87.8088C302.673 85.8059 302.134 83.5718 302.134 81.1066C302.134 78.5798 302.673 76.3457 303.752 74.4044C304.861 72.463 306.34 70.9377 308.189 69.8284C310.038 68.6882 312.133 68.1182 314.475 68.1182C316.355 68.1182 318.034 68.4417 319.514 69.0888C320.993 69.7359 322.241 70.6296 323.258 71.7697C324.274 72.879 325.045 74.1579 325.569 75.6062C326.123 77.0545 326.401 78.5952 326.401 80.2284C326.401 80.629 326.385 81.045 326.354 81.4764C326.324 81.9078 326.262 82.3084 326.17 82.6782H306.248V78.5182H323.211L320.715 80.4133C321.023 78.9033 320.916 77.5629 320.392 76.3919C319.899 75.1902 319.128 74.2503 318.081 73.5724C317.064 72.8636 315.862 72.5093 314.475 72.5093C313.089 72.5093 311.856 72.8636 310.778 73.5724C309.699 74.2503 308.867 75.2364 308.282 76.5306C307.696 77.794 307.465 79.3347 307.588 81.1528C307.434 82.8476 307.665 84.3268 308.282 85.5902C308.929 86.8536 309.822 87.8396 310.962 88.5484C312.133 89.2571 313.458 89.6115 314.938 89.6115C316.447 89.6115 317.726 89.2725 318.774 88.5946C319.853 87.9167 320.7 87.0385 321.316 85.9599L325.569 88.0399C325.076 89.2109 324.305 90.274 323.258 91.2293C322.241 92.1537 321.008 92.8933 319.56 93.4479C318.142 93.9718 316.586 94.2337 314.891 94.2337ZM340.28 94.2337C337.723 94.2337 335.473 93.602 333.532 92.3386C331.621 91.0752 330.281 89.3804 329.511 87.2542L333.532 85.359C334.21 86.7765 335.134 87.9013 336.305 88.7333C337.507 89.5653 338.832 89.9813 340.28 89.9813C341.513 89.9813 342.514 89.7039 343.285 89.1493C344.055 88.5946 344.44 87.8396 344.44 86.8844C344.44 86.2681 344.271 85.775 343.932 85.4053C343.593 85.0047 343.162 84.6811 342.638 84.4346C342.145 84.1881 341.636 84.0032 341.112 83.8799L337.183 82.7706C335.026 82.1543 333.409 81.2299 332.33 79.9973C331.282 78.7339 330.759 77.2702 330.759 75.6062C330.759 74.0962 331.144 72.7866 331.914 71.6773C332.684 70.5371 333.748 69.6589 335.103 69.0426C336.459 68.4263 337.985 68.1182 339.679 68.1182C341.96 68.1182 343.994 68.6882 345.781 69.8284C347.568 70.9377 348.831 72.4939 349.571 74.4968L345.55 76.3919C345.057 75.1902 344.271 74.2349 343.192 73.5262C342.145 72.8174 340.958 72.463 339.633 72.463C338.493 72.463 337.584 72.7404 336.906 73.295C336.228 73.8189 335.889 74.5122 335.889 75.375C335.889 75.9605 336.043 76.4536 336.351 76.8542C336.66 77.2239 337.06 77.5321 337.553 77.7786C338.046 77.9943 338.555 78.1792 339.079 78.3333L343.146 79.535C345.211 80.1205 346.798 81.045 347.907 82.3084C349.016 83.541 349.571 85.0201 349.571 86.7457C349.571 88.2248 349.17 89.5345 348.369 90.6746C347.599 91.7839 346.52 92.6622 345.134 93.3093C343.747 93.9256 342.129 94.2337 340.28 94.2337Z" fill="white"></path><path fill-rule="evenodd" clip-rule="evenodd" d="M82.6885 8.52459H21.3115C14.2495 8.52459 8.52459 14.2495 8.52459 21.3115V82.6885C8.52459 89.7505 14.2495 95.4754 21.3115 95.4754H82.6885C89.7505 95.4754 95.4754 89.7505 95.4754 82.6885V21.3115C95.4754 14.2495 89.7505 8.52459 82.6885 8.52459ZM21.3115 0C9.54147 0 0 9.54147 0 21.3115V82.6885C0 94.4585 9.54147 104 21.3115 104H82.6885C94.4585 104 104 94.4585 104 82.6885V21.3115C104 9.54147 94.4585 0 82.6885 0H21.3115Z" fill="white"></path><path fill-rule="evenodd" clip-rule="evenodd" d="M62.8435 32.719C62.6437 32.5404 62.4328 32.3693 62.2107 32.2058C60.2859 30.7886 57.6736 30.08 54.374 30.08C52.1319 30.08 50.2388 30.3973 48.6947 31.0319C47.1506 31.6453 45.9661 32.5019 45.1412 33.6018C44.2552 34.8143 42.7462 35.7968 41.4413 35.0536C40.4169 34.47 39.4709 33.75 38.6307 32.9099C37.0637 31.343 35.9148 29.4081 35.2892 27.2823C35.0136 26.3458 35.2575 25.3224 35.9948 24.6826C37.6439 23.2516 39.5717 22.0472 41.778 21.0694C45.5008 19.4195 49.7311 18.5946 54.4691 18.5946C59.2918 18.5946 63.501 19.4195 67.0968 21.0694C70.7138 22.7192 73.527 25.0142 75.5364 27.9543C76.2714 29.0298 76.8763 30.1676 77.351 31.3676C78.7586 34.9263 75.5097 38.1706 71.6827 38.1706C68.6954 38.1706 66.304 35.9363 64.0448 33.8255L64.0445 33.8253L64.0444 33.8251C63.6408 33.448 63.2413 33.0748 62.8435 32.719ZM43.1736 39.7577C43.7408 39.5359 44.3482 39.8716 44.6653 40.3916C45.2152 41.2588 45.9661 42.0097 46.9179 42.6443C47.8698 43.2577 48.9697 43.797 50.2176 44.2624C51.4656 44.7066 52.7981 45.0873 54.2153 45.4046L60.0532 46.8006C62.8876 47.4351 65.4893 48.2812 67.8583 49.3388C70.2273 50.3964 72.279 51.6972 74.0135 53.2413C75.7479 54.7854 77.091 56.6045 78.0429 58.6985C79.0159 60.7925 79.5129 63.1933 79.5341 65.9007C79.5129 69.8773 78.4977 73.325 76.4882 76.244C74.4999 79.1418 71.6233 81.3945 67.8583 83.002C64.1144 84.5884 59.5985 85.3816 54.3105 85.3816C49.0648 85.3816 44.496 84.5778 40.6041 82.9703C36.7333 81.3627 33.7086 78.9831 31.53 75.8315C30.5245 74.3529 29.7418 72.7112 29.182 70.9064C28.0527 67.2661 31.2713 64.0605 35.0827 64.0605H35.5769C38.8712 64.0605 41.3183 66.8868 43.301 69.5177C44.422 70.956 45.9132 72.0453 47.7746 72.7857C49.6571 73.5048 51.7829 73.8644 54.1519 73.8644C56.4786 73.8644 58.4986 73.526 60.2119 72.8491C61.9463 72.1722 63.2895 71.231 64.2413 70.0253C65.1931 68.8197 65.669 67.4342 65.669 65.869C65.669 64.4095 65.2354 63.1827 64.3682 62.1886C63.5221 61.1944 62.2742 60.3484 60.6243 59.6503C58.9956 58.9523 56.9968 58.3178 54.6278 57.7467L47.5525 55.9699C42.9113 54.841 39.0975 53.1731 36.1111 50.9663C35.3036 50.3696 35.0057 49.3192 35.2892 48.3561C35.9147 46.2304 37.0634 44.2956 38.6301 42.7287C39.9262 41.4325 41.4741 40.4223 43.1736 39.7577ZM34.7667 30.7946L34.1449 28.682C34.1181 28.5903 34.0623 28.5097 33.9859 28.4524C33.9094 28.395 33.8165 28.364 33.7209 28.364C33.6254 28.364 33.5324 28.395 33.4559 28.4524C33.3795 28.5097 33.3237 28.5903 33.297 28.682L32.676 30.7946C32.2588 32.2117 31.4928 33.5014 30.4482 34.5459C29.4036 35.5903 28.1136 36.3561 26.6965 36.7731L24.5838 37.3949C24.1607 37.5203 24.1607 38.1191 24.5838 38.2428L26.6965 38.8645C28.1135 39.2816 29.4032 40.0475 30.4477 41.0919C31.4922 42.1363 32.258 43.426 32.6752 44.843L33.297 46.9565C33.4215 47.3787 34.0203 47.3787 34.1449 46.9565L34.7667 44.8439C35.1837 43.4268 35.9495 42.1369 36.9939 41.0923C38.0384 40.0477 39.3282 39.2817 40.7453 38.8645L42.8589 38.2428C43.2811 38.1182 43.2811 37.5194 42.8589 37.3958L40.7462 36.774C39.329 36.3569 38.039 35.591 36.9943 34.5464C35.9497 33.5018 35.1838 32.2118 34.7667 30.7946ZM27.23 43.2727L27.4165 43.9065C27.5417 44.3316 27.7714 44.7186 28.0848 45.032C28.3982 45.3454 28.7852 45.5752 29.2104 45.7003L29.8442 45.8868C29.9709 45.9239 29.9709 46.1035 29.8442 46.1409L29.2101 46.3274C28.785 46.4526 28.3981 46.6824 28.0847 46.9958C27.7714 47.3091 27.5416 47.6961 27.4165 48.1212L27.23 48.755C27.1926 48.8817 27.013 48.8817 26.9756 48.755L26.7891 48.121C26.6639 47.6959 26.4342 47.309 26.1208 46.9957C25.8075 46.6823 25.4206 46.4526 24.9955 46.3274L24.3617 46.1409C24.2347 46.1038 24.2347 45.9242 24.3617 45.8865L24.9955 45.7C25.4206 45.5749 25.8076 45.3452 26.121 45.0319C26.4344 44.7185 26.6642 44.3316 26.7893 43.9065L26.9756 43.2727C26.9837 43.2452 27.0004 43.221 27.0233 43.2038C27.0463 43.1866 27.0741 43.1773 27.1028 43.1773C27.1315 43.1773 27.1594 43.1866 27.1823 43.2038C27.2052 43.221 27.222 43.2452 27.23 43.2727ZM26.0151 26.0311L25.7249 25.0452C25.7124 25.0024 25.6864 24.9648 25.6507 24.938C25.615 24.9113 25.5717 24.8968 25.5271 24.8968C25.4825 24.8968 25.4391 24.9113 25.4034 24.938C25.3677 24.9648 25.3417 25.0024 25.3292 25.0452L25.0395 26.0311C24.8448 26.6924 24.4873 27.2943 23.9998 27.7817C23.5123 28.2691 22.9103 28.6264 22.249 28.821L21.2631 29.1112C21.0656 29.1697 21.0656 29.4492 21.2631 29.5069L22.249 29.797C22.9103 29.9917 23.5121 30.3491 23.9996 30.8365C24.487 31.3239 24.8444 31.9257 25.039 32.587L25.3292 33.5733C25.3873 33.7703 25.6668 33.7703 25.7249 33.5733L26.0151 32.5874C26.2097 31.9261 26.567 31.3241 27.0545 30.8367C27.5419 30.3492 28.1438 29.9917 28.8051 29.797L29.7915 29.5069C29.9885 29.4488 29.9885 29.1693 29.7915 29.1116L28.8055 28.8214C28.1441 28.6268 27.5422 28.2694 27.0547 27.7819C26.5672 27.2944 26.2097 26.6924 26.0151 26.0311Z" fill="white"></path></svg>