<svg width="203" height="34" viewBox="0 0 203 34" fill="none" xmlns="http://www.w3.org/2000/svg">
<path d="M202.441 6.41784C202.671 5.62221 202.213 4.79014 201.418 4.55937L188.452 0.79878C187.657 0.568011 186.825 1.02593 186.594 1.82156C186.363 2.6172 186.821 3.44927 187.617 3.68003L199.142 7.02278L195.799 18.5478C195.568 19.3434 196.026 20.1755 196.822 20.4063C197.617 20.637 198.449 20.1791 198.68 19.3835L202.441 6.41784ZM0.306355 7.32998C1.22502 7.80911 2.14397 8.28144 3.06318 8.74699L4.41865 6.07066C3.51012 5.61052 2.60177 5.14365 1.69365 4.67002L0.306355 7.32998ZM8.60413 11.4699C10.4718 12.3598 12.3404 13.2219 14.2095 14.0563L15.4324 11.3168C13.586 10.4926 11.74 9.64089 9.89449 8.76162L8.60413 11.4699ZM19.8778 16.5015C21.7903 17.2978 23.7032 18.0654 25.6162 18.8044L26.6972 16.0059C24.8085 15.2763 22.9197 14.5184 21.031 13.732L19.8778 16.5015ZM31.4121 20.956C33.3626 21.6507 35.313 22.3159 37.263 22.9517L38.193 20.0994C36.2687 19.4721 34.3439 18.8156 32.4187 18.1299L31.4121 20.956ZM43.1659 24.7871C45.1505 25.3743 47.1345 25.9312 49.1176 26.458L49.8878 23.5586C47.9319 23.039 45.9749 22.4897 44.017 21.9104L43.1659 24.7871ZM55.1143 27.9602C57.1282 28.4343 59.1409 28.8774 61.1522 29.2898L61.7547 26.3509C59.772 25.9443 57.7875 25.5075 55.8017 25.04L55.1143 27.9602ZM67.2267 30.4429C69.2642 30.7987 71.2998 31.123 73.3333 31.4162L73.7613 28.4469C71.7573 28.158 69.7511 27.8383 67.7428 27.4876L67.2267 30.4429ZM79.4668 32.2065C81.5211 32.4398 83.573 32.6413 85.622 32.8112L85.8698 29.8215C83.8512 29.6541 81.8295 29.4556 79.8053 29.2257L79.4668 32.2065ZM91.7933 33.228C93.8571 33.3356 95.9178 33.4111 97.9749 33.4549L98.0387 30.4555C96.0124 30.4125 93.9826 30.338 91.9495 30.232L91.7933 33.228ZM104.161 33.4905C106.227 33.4704 108.289 33.4182 110.346 33.3341L110.224 30.3366C108.197 30.4194 106.167 30.4709 104.132 30.4907L104.161 33.4905ZM116.524 32.9851C118.583 32.8365 120.637 32.656 122.687 32.4437L122.378 29.4597C120.359 29.6687 118.336 29.8466 116.308 29.9929L116.524 32.9851ZM128.83 31.7106C130.874 31.4343 132.914 31.1263 134.947 30.7868L134.453 27.8278C132.45 28.1621 130.442 28.4655 128.428 28.7376L128.83 31.7106ZM141.032 29.6741C143.054 29.272 145.071 28.8386 147.08 28.3744L146.405 25.4513C144.425 25.9087 142.439 26.3356 140.447 26.7317L141.032 29.6741ZM153.085 26.8902C155.077 26.3654 157.063 25.8101 159.042 25.2244L158.19 22.3478C156.241 22.9249 154.284 23.4721 152.321 23.9891L153.085 26.8902ZM164.945 23.3803C166.901 22.7371 168.849 22.0641 170.79 21.3614L169.769 18.5406C167.856 19.2332 165.935 19.8966 164.008 20.5305L164.945 23.3803ZM176.573 19.1716C178.487 18.415 180.392 17.6294 182.289 16.815L181.106 14.0582C179.235 14.8613 177.356 15.6359 175.47 16.3819L176.573 19.1716ZM187.935 14.2958C189.801 13.4314 191.658 12.5389 193.507 11.6186L192.17 8.93294C190.346 9.84088 188.514 10.7212 186.674 11.5738L187.935 14.2958ZM199.002 8.78777C199.911 8.30336 200.818 7.81214 201.723 7.31414L200.277 4.68586C199.384 5.17731 198.489 5.66204 197.591 6.14002L199.002 8.78777Z" fill="#DD4F93"/>
</svg>
